<?xml version="1.0" standalone="no"?>
<!DOCTYPE svg PUBLIC "-//W3C//DTD SVG 20010904//EN"
 "http://www.w3.org/TR/2001/REC-SVG-20010904/DTD/svg10.dtd">
<svg version="1.0" xmlns="http://www.w3.org/2000/svg"
 width="153.000000pt" height="153.000000pt" viewBox="0 0 153.000000 153.000000"
 preserveAspectRatio="xMidYMid meet">
<metadata>
Created by potrace 1.11, written by Peter Selinger 2001-2013
</metadata>
<g transform="translate(0.000000,153.000000) scale(0.100000,-0.100000)"
fill="#000000" stroke="none">
<path d="M633 1520 c-18 -4 -33 -5 -33 -3 0 3 -7 0 -15 -7 -8 -7 -15 -10 -15
-7 0 13 -139 -47 -205 -88 -174 -108 -296 -283 -339 -490 -7 -33 -12 -108 -10
-165 2 -107 3 -113 25 -190 7 -25 13 -47 14 -50 4 -25 64 -135 99 -184 105
-147 287 -267 457 -301 72 -15 243 -14 307 1 273 64 461 228 562 491 11 29 18
53 15 53 -2 0 0 12 6 27 19 50 25 182 13 278 -9 75 -57 207 -103 285 -43 72
-182 220 -207 220 -8 0 -14 3 -14 8 0 13 -112 70 -195 98 -67 22 -100 27 -205
29 -69 2 -140 0 -157 -5z m177 -157 c43 -1 83 -6 125 -16 41 -10 135 -58 182
-93 77 -58 130 -123 173 -209 56 -115 66 -158 65 -276 -1 -121 -24 -201 -83
-297 -50 -81 -79 -113 -154 -170 -188 -142 -437 -157 -648 -39 -107 60 -223
201 -265 322 -28 79 -37 200 -21 301 8 57 55 170 93 224 96 139 252 234 418
256 28 3 52 8 54 10 3 2 7 1 10 -3 3 -5 26 -9 51 -10z"/>
<path d="M479 1068 c-5 -59 0 -434 5 -464 49 -260 430 -299 546 -57 22 46 23
60 25 291 l1 242 -83 0 -83 0 0 -220 c0 -241 -6 -274 -55 -306 -32 -21 -94
-23 -129 -4 -57 30 -60 45 -62 290 -2 124 -3 228 -3 233 -2 13 -161 8 -162 -5z"/>
</g>
</svg>
